<svg width="14" height="14" viewBox="0 0 14 14" fill="none" xmlns="http://www.w3.org/2000/svg">
<path d="M2.84151 6.39834C3.13245 4.36396 4.88464 2.7999 6.99995 2.7999C8.15932 2.7999 9.20932 3.27021 9.97057 4.02928L9.9837 4.0424L10.15 4.1999H9.10214C8.71495 4.1999 8.40214 4.51271 8.40214 4.8999C8.40214 5.28709 8.71495 5.5999 9.10214 5.5999H11.9021C12.2893 5.5999 12.6021 5.28709 12.6021 4.8999V2.0999C12.6021 1.71271 12.2893 1.3999 11.9021 1.3999C11.5149 1.3999 11.2021 1.71271 11.2021 2.0999V3.26803L10.9549 3.03396C9.94214 2.02553 8.54214 1.3999 6.99995 1.3999C4.17807 1.3999 1.84401 3.48678 1.45682 6.20146C1.40214 6.58428 1.66682 6.93865 2.04964 6.99334C2.43245 7.04803 2.78682 6.78115 2.84151 6.40053V6.39834ZM12.5431 7.79834C12.5978 7.41553 12.3309 7.06115 11.9503 7.00646C11.5696 6.95178 11.2131 7.21865 11.1584 7.59928C10.8674 9.63365 9.11526 11.1977 6.99995 11.1977C5.84057 11.1977 4.79057 10.7274 4.02932 9.96834L4.0162 9.95521L3.84995 9.79771H4.89776C5.28495 9.79771 5.59776 9.4849 5.59776 9.09771C5.59776 8.71053 5.28495 8.39771 4.89776 8.39771L2.09995 8.3999C1.91401 8.3999 1.73464 8.47428 1.60339 8.60771C1.47214 8.74115 1.39776 8.91834 1.39995 9.10646L1.42182 11.8846C1.42401 12.2718 1.7412 12.5824 2.12839 12.578C2.51557 12.5737 2.8262 12.2587 2.82182 11.8715L2.81307 10.7449L3.04714 10.9658C4.05995 11.9743 5.45776 12.5999 6.99995 12.5999C9.82183 12.5999 12.1559 10.513 12.5431 7.79834Z" fill="black"/>
</svg>
